<?xml version="1.0" encoding="UTF-8"?>
<svg id="Layer_1" xmlns="http://www.w3.org/2000/svg" version="1.1" viewBox="0 0 48 48">
  <!-- Generator: Adobe Illustrator 30.8.1, SVG Export Plug-In . SVG Version: 2.1.4 Build 1)  -->
  <defs>
    <style>
      .st0 {
        fill: #dc0000;
      }
    </style>
  </defs>
  <rect width="48" height="48" rx="9.1" ry="9.1"/>
  <g>
    <path class="st0" d="M26,26.7c0,.1.2.2.3.2.3,0,.7-.1,1-.1.1,0,.2,0,.3,0h.8c.3,0,.6.1.8,0,.2,0,.4-.2.7-.3.3,0,.7.2.9,0,0,0,.2,0,.2,0,.1-.1.4,0,.5-.2.2-.3.4-.5.7-.8h0c0,0,.2-.1.3-.1.1,0,.3-.1.5-.2.1,0,.3.9.4.8,0,0,.2-1,.3-1,.1,0,.2-.1.3-.2.3,0,.4-.2.5-.4.2-.4.5-.8.9-1.1.1,0,.2-.1.3-.2.1,0,.3,0,.4-.1,0,0,.1-.1.1-.2.1,0,.2,0,.3-.1,0,0,.1-.1.2-.2.1,0,.3-.1.4-.1.2,0,.4,0,.6-.2.1-.1.2-.4.3-.6s.1-.4.1-.6h0c.2-.3.3-.5.4-.7.2-.2.4-.2.7-.3.3-.1.5-.3.7-.6s0,0,.1-.1c0,0,.1,0,.2-.1.1-.1.3-.2.4-.3.1,0,.1-.1.2-.2s.1-.1.1-.2,0-.1,0-.2h0c.1-.2.3-.2.4-.3.2-.2.3-.5.4-.8v-.6c0,0,.1-.1.2-.2.1,0,.1-.2.1-.3,0-.1.1-.2.2-.3.1-.2.2-.4.3-.6,0,0,.1-.1.1-.2.1-.3.3-.6.4-.8.2-.3.4-.7.6-1l.5-1.4c-.2.2-.5.5-.6.7-.3.3-.5.6-.8,1.1-.6.7-1.1,1.2-1.7,1.8-.5.4-1.4.9-1.9,1.3-.2.2-.5.3-.7.4-.3.3-.4.5-.7.8-.3.3-1.2.9-1.5,1.3-.3.3-.7.8-1.1,1.1s-.8.4-1.2.7l-.3.8c-.2,0-.4.1-.6.2h-.6l-.5-.3c0,.1,0,.2,0,.3h0c0,.2-.1.1-.1.1-.2.3-.4.4-.6.6-.3.1-.6.3-.9.3,0,0-.2.2-.3.2-.4,0,0,0-.3,0s-.7.4-1,.8h0c-.3,0-.6.2-.8.3h0c0,0-.2-.1-.3-.1-.2,0-.4,0-.7.1-.1,0-.2-.1-.3,0-.7,0-1.5,0-1.5.5s0,1,0,1.6.1.3.3.3h0c0,.1,0,0,0,0Z"/>
    <path class="st0" d="M5.1,13.2h0c0,0,0,.1.1.2h0c0,.4,0,.6.3.9,0,0,.1.1.3.3,0,0,0,0,0,0,.1.3.2.6.3.8.1.3.2.6.4.8,0,.1.2.2.3.3s.3.1.4.2h0c0,.1.1.2.1.3,0,.2,0,.3.2.5.1.2.3.4.6.5h0c.3.3,1,.7,1.3,1,.4.4,0,1.4.4,1.5,0,0,.1-.4,0-.6,0-.2.2-.3.3-.1.2.4.4.9.7,1.1,0,0,.1,0,.2.1,0,0,0,0,0,0,0,.2.1.3.2.4.3.4,1.6.5,2,.9,0,0,.1.1.2.2h0c.1.3.3.6.5.7s.3.3.4.4c.1.1.2.3.3.4.2.3.5.6.8.8.3.2.7.5,1.1.4h0c.2,0,.3.1.4.3.2.2.4.2.5.3,0,0,0,.1.1.1.2.4.4.6.8.5h1c.3,0,.3.1.5.2h.3s.2.6.3.6c0,0,.1-.6.2-.6.3-.1,1.2,0,1.7,0,0,0,.1.1.1.1,0,0,.1-.2.2-.2.2,0,.4-.4.4-.6,0-.6,0-.8,0-1.2,0-.7-.5-.3-1.7-.4h-.2c0-.2-.4-.3-.5-.4h-.4c-.1,0-.3-.1-.5-.1-.2,0-.4,0-.6-.1h-.1c-.1-.3-.2-.2-.3-.2h-.1c-.3-.1-1-.8-1.1-.9-.1,0-.1,0-.2,0h0s0-.1-.2-.2c0,0-.1,0-.2-.1h-.2s0-.1-.1-.2c0,0,0,0-.1,0h0c0,0-.1,0-.1-.1s0,0,0-.1c0,0-.2,0-.3,0h0c-.2-.3-.5-.4-.8-.7h0s0,0-.1-.1c0-.1-.1-.2-.1-.3v-.2c0-.1-.1-.2-.3-.1h0s0,0-.1,0h0s0,0-.1,0c-.3,0-.5-.1-.7-.3h0c-.2-.2-.3-.9-.5-1.1,0,0,0-.2-.1-.3-.3-.3-.3.2-.4-.1,0-.2-1.7-.6-1.7-.6-.2,0-.4-.2-.4-.3h0c0-.1-.1-.4-.3-.5-.1-.2-.4-.3-.7-.4-.5-.4-1.3-.8-1.8-1.3-.6-.6-1-.9-1.6-1.5-.3-.3-.6-.6-1-1.2h0c-.1-.2-.3,0-.3,0l.2.6h0c0-.1,0-.4,0-.4Z"/>
    <path class="st0" d="M46,13.8c-.4.6-.8,1.4-1.1,2-.3.6-.7,1.3-.7,2-.3.3-.6.6-.8,1-.3.7-.7,1.4-1.2,2-.3.4-.7,1.3-1.1,1.5,0,0-.2-.3-.3-.3-.1.1-.4.8-.5.8h0c-.4.7-1,1.3-1.7,1.7-1.1,1.1-2.1,2-3.6,2.6-.4.3-.8.6-1.3.9-.3.1-.5.1-.8.3h0c-.7.6-1.6.4-2.4.7-.4.2-.8,1.1-1.3,1.3-.5.2-1.1.2-1.6.2h-.7c.2-.3.4-.6.5-.8,0-.1-1.2.7-1.7,1-.4,0-.8.1-1.3.2-.1,0-.2,0-.3,0-.1,0-.3-.2-.4-.2-.2,0-.3.2-.4.3h-.4c-.5,0-1-.3-1.4-.4,0,0-.1,0-.3-.1-.4,0-.8,0-1.2-.1-1.8-.3-3.5-1-4.8-2.2-.4-.1-.9-.4-1.4-.4-1.1-.7-2.1-1.1-3.2-2.1,0-.1-.1-.2-.2-.3-.2-.2-.3-.7-.4-.9-.6-.4-1.4-.6-1.9-1.3-.3-.3-.5-1.4-.7-1.8-.6-.7-1.2-1.4-1.8-2.1-.6-.5-1.2-1-1.5-1.8,0,0-.1,0-.2,0,0-.6-.4-1.1-.7-1.6-.3-.7-.7-1.4-1.1-2-.2,1.8.3,3.3.7,5.1,0,.4,0,.7.3,1.3,0,0,.3.1.4.4.2.4.4.8.6,1.1,0,.3.1.6.2.9,0,.4.2,1.2.3,1.6.1.4.3.4.5.8,0,.1.1.2.2.3,0,0,.1,0,.1,0l.4.2h0s0,0,.1,0c.2.1.5.1.7.3,0,0,0,0,.1.1.1.4.1.9.3,1.1.1.1.4.6.7.8-.1.8-.4,1.7-.6,2.4,0,.4-.3.5-.3.8.1.2.3-.6.3-.6.2-.4.8-1.6,1-1.9h0c0,.1.2-.2.8.3v.3c.5.2.9.5,1.6.9.4.3.6.2,1,.3.1,0,.2,0,.3.1,0,.1.1.1.2.1.1.1.3.2.4.4,0,.2.1.4.4.4h0c.1,0,.3,0,.5,0,0,0,.3.8.5.8h1.2c0,0,.4,0,.4,0,.1.1.2.2.3.2.2,0,.7.1,1.3.2,0,.2,0,.4,0,.6s.3.4.3.3c0-.1-.1-.3.1-.3.3-.1.5.2.6.7,0,.8,0,1.2,0,1.6s.4.3.4,0-.1-.9,0-1.7c0,0,.1.1.2,0,.5,0,1-.1,1.4-.2.2,0,.4-.1.7,0,.2,0,.4.2.7.3.4.1.8-.1,1.3-.1s.4,0,.6.1h.7c.2,0,.4-.1.6-.1.3,0,.4,0,.7.2.4.3.7.3,1.1.1.3-.1.7-.4,1-.5h.8c.1.1.3.3.4.3.2,0,.4-.3.6-.5,0,0,0-.1,0-.3,0-.1.2-.2.4-.3h0c.1.1.1.2.3.3.1.1.9.1,1.1,0,.2-.1.6-.3.8-.5,0,0,.2-.1.3-.2,0,.9,0,1,0,1.4s.4.3.4,0,0-.2,0-1,.1-.5.2-.6c0,0,.2,0,.3,0h0c.2,0,0,.3.1.4,0,.1.2-.6.3-.7s0-.3,0-.4h1.1c.2-.3.3-.5.4-.7.4-.1.7-.3.7-.3,0,0,0-.2,0-.3.2-.3.7-.1.8-.2,0,0,0-.1.1-.2,0,0,0,0,0,0,.3,0,.5,0,.6,0,.3-.1.6-.4.8-.4h.1c0-.1,0-.3,0-.4.4-.1.8.7,1.1,1,.2.3.9,1.3,1.1,1.7,0,0,.2.7.3.5,0-.3-.2-.4-.3-.8-.2-.8-.7-2-.7-2.8,0-.4.3-1.2.4-1.5,0,0,.1-.1.2-.2.1-.2.1-.6.3-1,.1-.1.3-.3.4-.4,0,0,.2,0,.3,0,.3,0,.7-.2.8-.5,0-.1,0-.3.1-.5,0-.2,0-.4,0-.6s0,.2,0,.1c.3-.5.5-1,.7-1.6,0,0,.1-.1.1-.2h0c.1-.4.3-.7.4-1.1,0,0,.1,0,.2-.1.1,0,.1.9.3.8.1-.1,0-1,.2-1.5,0,0,0,0,0,0,.3-.6.2-.9.3-1.3.4-1.8.9-3.6.7-5.4h.3c0,.1.1,0,.1,0Z"/>
  </g>
</svg>