<?xml version="1.0" encoding="UTF-8"?>
<svg id="Layer_1" xmlns="http://www.w3.org/2000/svg" version="1.1" viewBox="0 0 300 300">
  <!-- Generator: Adobe Illustrator 30.7.0, SVG Export Plug-In . SVG Version: 2.1.4 Build 114)  -->
  <defs>
    <style>
      .st0 {
        fill: #fff;
      }
    </style>
  </defs>
  <path class="st0" d="M139.7,6.6c0,.4-1.4,1.1-3.2,1.4-14.4,3.4-27.3,14.4-33.6,28.5-3.6,8.2-4.3,13.2-4.8,32.9l-.5,18.5-21.9.4c-19.7.3-22.2.5-24.1,1.7-3.3,2.2-4.9,6.7-5,13.8,0,3.3-.4,10.7-.8,16.3-.5,5.6-1.1,17-1.5,25.3-.4,8.3-1.1,20.7-1.5,27.6-1.1,16.1-2.1,35.8-3,55.2-.4,8.5-1.1,19.9-1.6,25.3-.9,11.1-.3,16,2.9,23.1,2.2,4.8,9,11.8,13.5,13.8,1.6.8,3.9,1.9,5.1,2.5,1.8.9,15.9,1.1,90.6,1.1s88.4-.3,88.4-.7,1.1-1,2.5-1.2c3.2-.8,9.6-5,12.9-8.7,5.7-6.4,8.5-15,7.7-25-.2-3.6-1-15.4-1.6-26.5-2-37.6-3.4-60.9-4.5-80.9-.6-11-1.5-27.5-2-36.7-.9-18.2-1.7-21.8-5.7-24.3-1.9-1.2-4.5-1.4-24.1-1.7l-21.9-.4-.5-18.9c-.4-12.6-.9-20.4-1.6-23.4-4.5-18.4-19.2-33.4-36.7-37.6-1.8-.4-3.3-1.1-3.3-1.4s-4.5-.7-10.2-.7-10.2.3-10.2.7h0ZM158.6,28c7.6,2.4,14.7,8.2,18.4,14.7,3,5.7,4.3,14.4,4.3,29.5s-.3,13.8-.8,14.7c-.8,1.4-1.9,1.4-30.6,1.4s-29.8,0-30.7-1.7c-1.3-2.3-.5-32.2,1.1-37.3,3.4-11.9,12.6-20,25.5-22.5,2.6-.5,9.6,0,12.9,1.1h0ZM158.6,28"/>
</svg>